<?xml version="1.0" standalone="no"?>
<!DOCTYPE svg PUBLIC "-//W3C//DTD SVG 20010904//EN"
 "http://www.w3.org/TR/2001/REC-SVG-20010904/DTD/svg10.dtd">
<svg version="1.0" xmlns="http://www.w3.org/2000/svg"
 width="300.000000pt" height="125.000000pt" viewBox="0 0 300.000000 125.000000"
 preserveAspectRatio="xMidYMid meet">
<g transform="translate(0.000000,125.000000) scale(0.100000,-0.100000)"
fill="#000000" stroke="none">
<path d="M325 1120 c-140 -55 -235 -209 -235 -381 0 -227 188 -429 400 -429
55 0 69 -9 180 -115 41 -40 89 -79 107 -89 42 -21 165 -23 157 -2 -3 8 -14 16
-25 19 -10 3 -19 12 -19 20 0 8 -10 17 -22 20 -13 4 -59 38 -103 77 -87 78
-115 97 -115 80 0 -17 125 -131 176 -161 49 -29 42 -41 -17 -30 -28 4 -58 27
-126 91 -99 95 -167 130 -251 130 -66 1 -118 28 -189 101 -84 86 -116 157
-121 269 -7 142 44 259 146 337 73 56 211 79 297 50 60 -21 160 -92 217 -156
145 -161 70 -469 -140 -573 l-52 -26 40 -7 c33 -6 48 -2 85 20 139 81 212 305
155 474 -27 80 -63 133 -134 198 -87 79 -132 97 -256 100 -86 3 -114 -1 -155
-17z"/>
<path d="M2505 1127 c-82 -38 -129 -137 -106 -224 21 -76 97 -144 246 -221
114 -59 132 -72 149 -105 24 -50 15 -100 -28 -143 -55 -55 -140 -65 -224 -26
-35 15 -72 74 -72 113 0 12 -8 23 -20 26 -11 3 -20 14 -20 24 0 12 -7 19 -20
19 -18 0 -20 -7 -20 -67 0 -114 10 -174 29 -171 10 2 17 -5 19 -20 3 -17 9
-22 25 -20 16 2 21 9 19 25 -4 28 -5 28 53 2 56 -25 175 -35 230 -20 106 28
165 99 165 197 0 107 -70 183 -249 270 -142 70 -161 87 -161 152 0 104 105
162 212 117 42 -17 63 -47 79 -109 6 -25 17 -46 25 -46 7 0 16 -9 19 -20 3
-11 13 -20 21 -20 11 0 14 23 14 120 0 113 -1 120 -20 120 -13 0 -20 7 -20 20
0 15 -7 20 -26 20 -23 0 -25 -3 -20 -26 4 -14 3 -24 -1 -22 -73 37 -95 42
-178 45 -60 2 -100 -1 -120 -10z m205 -23 c22 -9 40 -20 40 -25 0 -4 -17 -1
-37 7 -106 45 -233 -13 -233 -106 0 -39 36 -132 57 -148 10 -7 67 -38 126 -68
132 -66 224 -141 233 -191 15 -77 -38 -167 -122 -209 -60 -29 -200 -20 -309
22 -10 4 -15 0 -15 -12 -1 -18 -1 -18 -15 0 -16 21 -22 156 -7 156 4 0 16 -21
26 -48 36 -89 80 -115 197 -116 55 -1 72 3 106 26 48 31 73 80 73 140 0 73
-23 96 -162 165 -103 51 -135 73 -177 118 -83 91 -91 172 -24 246 19 21 49 43
67 48 50 15 132 12 176 -5z m145 -57 c4 -24 3 -64 -3 -88 -9 -43 -9 -44 -16
-14 -4 17 -17 51 -30 76 -20 41 -21 48 -7 57 34 23 49 14 56 -31z"/>
<path d="M1370 1110 c0 -13 7 -20 20 -20 13 0 20 -7 20 -20 0 -13 7 -20 20
-20 20 0 20 -7 20 -303 0 -329 -3 -347 -56 -347 -15 0 -24 -6 -24 -15 0 -10
11 -15 35 -15 19 0 35 5 35 11 0 6 9 22 20 36 19 24 20 41 20 314 0 254 -2
292 -17 323 -10 19 -25 37 -33 39 -8 2 47 7 123 11 149 9 287 1 310 -17 10 -8
17 -36 19 -76 3 -36 1 -56 -3 -45 -4 10 -12 33 -19 50 -17 46 -67 66 -175 72
-79 4 -93 2 -115 -16 -24 -20 -25 -25 -28 -159 l-4 -138 34 -18 c25 -13 51
-17 99 -15 61 3 65 4 80 36 l17 32 6 -25 c4 -14 4 -49 0 -77 -6 -42 -9 -47
-17 -32 -20 36 -47 46 -133 48 l-84 2 0 -156 0 -155 48 -22 47 -23 -81 0
c-100 0 -144 -8 -144 -26 0 -11 28 -14 140 -14 133 0 140 1 140 20 0 13 -7 20
-20 20 -14 0 -20 7 -20 21 0 19 -4 20 -35 15 l-35 -7 0 151 0 150 58 0 c85 0
102 -7 102 -41 0 -30 23 -41 33 -16 3 6 6 -3 6 -20 1 -22 6 -33 16 -33 12 0
15 19 15 115 0 108 -1 115 -20 115 -13 0 -20 7 -20 20 0 14 -7 20 -21 20 -20
0 -21 -4 -15 -50 l7 -50 -81 0 -80 0 0 123 c0 167 0 167 131 167 115 0 139
-13 139 -75 0 -28 4 -35 20 -35 13 0 20 -7 20 -20 0 -11 7 -20 15 -20 12 0 15
17 15 95 0 88 -1 95 -20 95 -13 0 -20 7 -20 20 0 19 -7 20 -255 20 -248 0
-255 -1 -255 -20z"/>
<path d="M422 1094 c-102 -27 -147 -63 -188 -151 -56 -118 -53 -254 8 -401 41
-101 60 -126 112 -151 55 -27 160 -38 209 -22 46 16 130 91 161 145 70 120 70
298 0 441 -34 70 -65 97 -139 123 -87 30 -104 32 -163 16z m182 -49 c46 -22
87 -76 118 -154 29 -75 32 -231 5 -309 -55 -156 -200 -232 -340 -178 -87 33
-145 146 -154 298 -5 73 -2 99 18 160 19 61 32 82 78 128 31 31 72 61 91 68
48 15 137 9 184 -13z"/>
</g>
</svg>
