<?xml version="1.0" encoding="iso-8859-1"?>
<svg height="800px" width="800px" version="1.1" id="Layer_1" xmlns="http://www.w3.org/2000/svg" xmlns:xlink="http://www.w3.org/1999/xlink" 
	 viewBox="0 0 512 512" xml:space="preserve">
<path style="fill:#9ED368;" d="M0,256.006C0,397.402,114.606,512.004,255.996,512C397.394,512.004,512,397.402,512,256.006
	C512.009,114.61,397.394,0,255.996,0C114.606,0,0,114.614,0,256.006z"/>
<path style="fill:#F4F6F9;" d="M369.119,362.049h-209.17l214.17-214.17c2.762-2.762,2.762-7.235,0-9.997
	c-2.762-2.762-7.235-2.762-9.997,0L149.951,352.051v-209.17c0-3.904-3.166-7.07-7.07-7.07s-7.07,3.166-7.07,7.07v226.238
	c0,3.904,3.166,7.07,7.07,7.07h226.238c3.904,0,7.07-3.166,7.07-7.07C376.189,365.215,373.023,362.049,369.119,362.049z"/>
</svg>