<?xml version="1.0" encoding="iso-8859-1"?>
<!DOCTYPE svg PUBLIC "-//W3C//DTD SVG 1.1//EN" "http://www.w3.org/Graphics/SVG/1.1/DTD/svg11.dtd">
<svg fill="#000000" height="800px" width="800px" version="1.1" id="Capa_1" xmlns="http://www.w3.org/2000/svg" xmlns:xlink="http://www.w3.org/1999/xlink" 
	 viewBox="0 0 370.001 370.001" xml:space="preserve">
<g>
	<path d="M364.203,119.594c-4.249-4.926-10.308-7.889-16.767-8.242V61.571c0-24.252-19.732-43.982-43.982-43.982h-71.417
		c-23.771,0-36.385,10.035-45.599,17.359c-7.409,5.891-11.88,9.451-21.465,9.451H61.758c-21.61,0-39.194,17.133-39.194,38.197
		v28.756c-6.456,0.354-12.518,3.316-16.765,8.242c-4.534,5.252-6.558,12.223-5.542,19.09l28.648,193.353
		c1.733,11.705,11.779,20.375,23.612,20.375h264.963c11.835,0,21.881-8.67,23.614-20.375l28.648-193.353
		C370.759,131.817,368.74,124.846,364.203,119.594z M263.535,225.982c-4.616,0-8.95-1.227-12.702-3.361l-22.263,18.854
		c1.993,3.655,3.127,7.844,3.127,12.293c0,14.21-11.561,25.771-25.771,25.771c-14.21,0-25.771-11.561-25.771-25.771
		c0-7.622,3.328-14.477,8.605-19.2l-9.198-20.045c-1.684,0.348-3.427,0.53-5.213,0.53c-5.931,0-11.396-2.018-15.756-5.399
		l-27.165,14.898c0.526,2.05,0.808,4.197,0.808,6.409c0,14.21-11.561,25.771-25.771,25.771c-14.21,0-25.771-11.561-25.771-25.771
		c0-14.21,11.562-25.77,25.771-25.77c7.071,0,13.485,2.864,18.147,7.492l25.71-14.1c-1.122-2.887-1.744-6.022-1.744-9.301
		c0-14.211,11.561-25.771,25.771-25.771c14.211,0,25.771,11.561,25.771,25.771c0,7.508-3.23,14.274-8.37,18.989l9.269,20.199
		c1.59-0.307,3.229-0.474,4.907-0.474c4.791,0,9.278,1.318,13.125,3.605l22.071-18.692c-2.133-3.752-3.359-8.084-3.359-12.7
		c0-14.21,11.562-25.77,25.771-25.77c14.21,0,25.771,11.561,25.771,25.77C289.306,214.42,277.745,225.982,263.535,225.982z
		 M318.692,111.319H51.307V82.596c0-5.92,5.314-9.459,10.451-9.459h103.216c19.624,0,30.565-8.699,39.354-15.689
		c8.108-6.459,13.977-11.119,27.709-11.119h71.417c8.4,0,15.237,6.836,15.237,15.242V111.319z"/>
</g>
</svg>